<svg width="200" height="760" viewBox="0 0 200 760" xmlns="http://www.w3.org/2000/svg">
  
  
  <g fill="#0078BF" transform="scale(1, 1.2) translate(0, -40)">
    <rect x="50" y="740" width="100" height="15"/>
    <rect x="60" y="725" width="80" height="15"/>

    <path d="M70 725 L70 650 L130 650 L130 725 Z" />
    <path d="M75 650 L75 580 L125 580 L125 650 Z" />
    <path d="M80 580 L80 500 L120 500 L120 580 Z" />
    <path d="M85 500 L85 400 L115 400 L115 500 Z" />
    <path d="M88 400 L88 320 L112 320 L112 400 Z" />
    <path d="M91 320 L91 250 L109 250 L109 320 Z" />
    <path d="M93 250 L93 180 L107 180 L107 250 Z" />
    <path d="M95 180 L95 120 L105 120 L105 180 Z" />

    <rect x="98" y="50" width="4" height="70"/>
    <rect x="99.5" y="20" width="1" height="30"/>
  </g>
</svg>
