<svg width="200" height="760" viewBox="0 0 200 760" xmlns="http://www.w3.org/2000/svg">
  
  
  <g fill="#0078BF">
    <path d="M70 750 L75 680 L125 680 L130 750 Z" />
    
    <path d="M72 680 L65 620 L135 620 L128 680 Z" />
    <path d="M72 620 L65 560 L135 560 L128 620 Z" />
    <path d="M72 560 L65 500 L135 500 L128 560 Z" />
    <path d="M72 500 L65 440 L135 440 L128 500 Z" />
    <path d="M72 440 L65 380 L135 380 L128 440 Z" />
    <path d="M72 380 L65 320 L135 320 L128 380 Z" />
    <path d="M72 320 L65 260 L135 260 L128 320 Z" />
    <path d="M72 260 L65 200 L135 200 L128 260 Z" />
    
    <path d="M85 200 L90 150 L110 150 L115 200 Z" />
    <rect x="98" y="50" width="4" height="100"/>
    <rect x="99.5" y="20" width="1" height="30"/>
    
    <rect x="60" y="750" width="80" height="10"/>
  </g>
</svg>
